<svg width="141" height="61" viewBox="0 0 141 61" fill="none" xmlns="http://www.w3.org/2000/svg">
<mask id="mask0_111_33" style="mask-type:alpha" maskUnits="userSpaceOnUse" x="0" y="0" width="141" height="61">
<rect width="141" height="61" fill="#D9D9D9"/>
</mask>
<g mask="url(#mask0_111_33)">
</g>
<g clip-path="url(#clip0_111_33)">
<path d="M19.0082 14.1758C9.21064 14.1758 1.04639 18.3277 1.04639 30.8538C1.04639 40.7772 6.53628 47.0264 19.2612 47.0264C34.2389 47.0264 35.1991 37.1712 35.1991 37.1712H27.9416C27.9416 37.1712 26.3856 42.4779 18.8185 42.4779C12.6552 42.4779 8.22235 38.3191 8.22235 32.4901H35.958V28.8322C35.958 23.0654 32.293 14.1758 19.0082 14.1758ZM18.7552 18.8507C24.6219 18.8507 28.6215 22.4407 28.6215 27.8214H8.3829C8.3829 22.1091 13.6034 18.8507 18.7552 18.8507Z" fill="#E53238"/>
<path d="M35.953 2.04626V40.7358C35.953 42.9319 35.796 46.0156 35.796 46.0156H42.7181C42.7181 46.0156 42.9666 43.8009 42.9666 41.7768C42.9666 41.7768 46.3865 47.1211 55.6855 47.1211C65.478 47.1211 72.1296 40.3303 72.1296 30.601C72.1296 21.5501 66.0197 14.2705 55.7012 14.2705C46.039 14.2705 43.0364 19.4824 43.0364 19.4824V2.04626H35.953ZM53.9146 19.0559C60.5644 19.0559 64.7932 23.9856 64.7932 30.601C64.7932 37.6949 59.9092 42.3357 53.9623 42.3357C46.8649 42.3357 43.0364 36.8004 43.0364 30.6642C43.0364 24.9465 46.4718 19.0559 53.9146 19.0559Z" fill="#0064D2"/>
<path d="M89.3322 14.1758C74.5926 14.1758 73.6474 22.2374 73.6474 23.5256H80.9838C80.9838 23.5256 81.3684 18.8191 88.8262 18.8191C93.6722 18.8191 97.4275 21.0348 97.4275 25.2945V26.8106H88.8262C77.4074 26.8106 71.3706 30.1473 71.3706 36.9185C71.3706 43.5823 76.9482 47.208 84.4862 47.208C94.7587 47.208 98.0679 41.5381 98.0679 41.5381C98.0679 43.7933 98.2421 46.0156 98.2421 46.0156H104.764C104.764 46.0156 104.511 43.261 104.511 41.4986V26.2658C104.511 16.2777 96.4457 14.1758 89.3322 14.1758ZM97.4275 31.3592V33.3808C97.4275 36.0174 95.7989 42.5726 86.2093 42.5726C80.9584 42.5726 78.707 39.9549 78.707 36.9185C78.707 31.3948 86.289 31.3592 97.4275 31.3592Z" fill="#F5AF02"/>
<path d="M100.561 15.4406H108.814L120.659 39.1444L132.477 15.4406H139.954L118.428 57.6409H110.585L116.797 45.877L100.561 15.4406Z" fill="#86B817"/>
</g>
<defs>
<clipPath id="clip0_111_33">
<rect width="139" height="56" fill="white" transform="translate(1 2)"/>
</clipPath>
</defs>
</svg>
