<svg width="141" height="61" viewBox="0 0 141 61" fill="none" xmlns="http://www.w3.org/2000/svg">
<mask id="mask0_111_34" style="mask-type:alpha" maskUnits="userSpaceOnUse" x="0" y="0" width="141" height="61">
<rect width="141" height="61" fill="#D9D9D9"/>
</mask>
<g mask="url(#mask0_111_34)">
<path d="M60.3396 35.4256C60.3396 42.1033 55.1157 47.024 48.7047 47.024C42.2937 47.024 37.0697 42.1033 37.0697 35.4256C37.0697 28.7009 42.2937 23.8273 48.7047 23.8273C55.1157 23.8273 60.3396 28.7009 60.3396 35.4256ZM55.2464 35.4256C55.2464 31.2527 52.2187 28.3976 48.7047 28.3976C45.1906 28.3976 42.1629 31.2527 42.1629 35.4256C42.1629 39.5567 45.1906 42.4537 48.7047 42.4537C52.2187 42.4537 55.2464 39.5515 55.2464 35.4256Z" fill="#EA4335"/>
<path d="M85.4398 35.4256C85.4398 42.1033 80.2159 47.024 73.8049 47.024C67.3939 47.024 62.1699 42.1033 62.1699 35.4256C62.1699 28.7061 67.3939 23.8273 73.8049 23.8273C80.2159 23.8273 85.4398 28.7009 85.4398 35.4256ZM80.3466 35.4256C80.3466 31.2527 77.3189 28.3976 73.8049 28.3976C70.2909 28.3976 67.2632 31.2527 67.2632 35.4256C67.2632 39.5567 70.2909 42.4537 73.8049 42.4537C77.3189 42.4537 80.3466 39.5515 80.3466 35.4256Z" fill="#FBBC05"/>
<path d="M109.494 24.528V45.3506C109.494 53.9161 104.443 57.4144 98.471 57.4144C92.8497 57.4144 89.4664 53.6546 88.1904 50.5798L92.6248 48.7339C93.4144 50.6217 95.3492 52.8493 98.4658 52.8493C102.288 52.8493 104.657 50.4909 104.657 46.0513V44.3832H104.479C103.339 45.7899 101.143 47.0187 98.3717 47.0187C92.5725 47.0187 87.2596 41.9673 87.2596 35.4675C87.2596 28.9205 92.5725 23.8273 98.3717 23.8273C101.138 23.8273 103.334 25.0561 104.479 26.421H104.657V24.5332H109.494V24.528ZM105.018 35.4675C105.018 31.3835 102.294 28.3976 98.8266 28.3976C95.3126 28.3976 92.3686 31.3835 92.3686 35.4675C92.3686 39.5096 95.3126 42.4537 98.8266 42.4537C102.294 42.4537 105.018 39.5096 105.018 35.4675Z" fill="#4285F4"/>
<path d="M117.469 12.323V46.3128H112.501V12.323H117.469Z" fill="#34A853"/>
<path d="M136.827 39.2428L140.78 41.8783C139.504 43.766 136.43 47.0186 131.117 47.0186C124.528 47.0186 119.607 41.9254 119.607 35.4203C119.607 28.5229 124.57 23.8219 130.547 23.8219C136.566 23.8219 139.51 28.6118 140.472 31.2003L141 32.5181L125.495 38.9395C126.682 41.2665 128.528 42.4535 131.117 42.4535C133.71 42.4535 135.509 41.1776 136.827 39.2428ZM124.659 35.0699L135.023 30.7663C134.453 29.3178 132.738 28.3085 130.719 28.3085C128.131 28.3085 124.528 30.5937 124.659 35.0699Z" fill="#EA4335"/>
<path d="M18.2656 32.4083V27.4877H34.8474C35.0095 28.3452 35.0931 29.3597 35.0931 30.4578C35.0931 34.1496 34.0839 38.7147 30.8313 41.9673C27.6677 45.2617 23.6255 47.0187 18.2708 47.0187C8.34579 47.0187 0 38.9344 0 29.0093C0 19.0843 8.34579 11 18.2708 11C23.7615 11 27.6729 13.1544 30.6117 15.9625L27.1395 19.4347C25.0322 17.4581 22.177 15.9207 18.2656 15.9207C11.0179 15.9207 5.34947 21.7617 5.34947 29.0093C5.34947 36.257 11.0179 42.098 18.2656 42.098C22.9666 42.098 25.644 40.2103 27.3591 38.4951C28.7501 37.1041 29.6652 35.117 30.026 32.4031L18.2656 32.4083Z" fill="#4285F4"/>
</g>
</svg>
