<svg width="141" height="61" viewBox="0 0 141 61" fill="none" xmlns="http://www.w3.org/2000/svg">
<mask id="mask0_111_35" style="mask-type:alpha" maskUnits="userSpaceOnUse" x="0" y="0" width="141" height="61">
<rect width="141" height="61" fill="#D9D9D9"/>
</mask>
<g mask="url(#mask0_111_35)">
<path d="M32.859 22.8413L28.5095 37.4982H24.8291L21.9072 27.062L18.8514 37.4982L15.1934 37.5192L11 22.8413H14.3458L17.0893 34.2224L20.2566 22.8413H23.7362L26.7251 34.1594L29.4909 22.8413H32.859ZM55.7086 22.8413L51.3592 37.4982H47.6788L44.7569 27.062L41.7011 37.4982L38.043 37.5192L33.8497 22.8413H37.1954L39.939 34.2224L43.1063 22.8413H46.5859L49.5748 34.1594L52.3406 22.8413H55.7086ZM78.5581 22.8413L74.2087 37.4982H70.5283L67.6064 27.062L64.5506 37.4982L60.8925 37.5192L56.6992 22.8413H60.0449L62.7885 34.2224L65.9558 22.8413H69.4354L72.4242 34.1594L75.1901 22.8413H78.5581Z" fill="black"/>
<path fill-rule="evenodd" clip-rule="evenodd" d="M3 7H138V52H3V7ZM4.52554 8.49182V50.5082H136.474V8.49182H4.52554Z" fill="#0CA4DA" stroke="#0CA4DA" stroke-width="2"/>
<path d="M88.5769 14.7495H86.7181V42.7473H88.5769V14.7495Z" fill="#0CA4DA"/>
</g>
</svg>
