<svg width="440" height="92" viewBox="0 0 440 92" fill="none" xmlns="http://www.w3.org/2000/svg">
<path d="M19.698 50.804C17.6433 50.804 15.7003 50.536 13.869 50C12.0377 49.5087 10.452 48.9727 9.112 48.392C7.81667 47.8114 6.901 47.4093 6.365 47.186C5.91833 46.9627 5.44933 46.8734 4.958 46.918C4.46667 46.9627 4.04233 47.186 3.685 47.588C3.64033 47.6327 3.618 47.655 3.618 47.655C3.57333 47.655 3.46167 47.7443 3.283 47.923C3.149 48.057 2.68 48.5037 1.876 49.263C1.42933 49.7097 1.005 49.8437 0.603 49.665C0.201 49.4417 0 49.0844 0 48.593V35.528C0 34.992 0.290333 34.6794 0.871 34.59C1.49633 34.5007 1.876 34.657 2.01 35.059C2.85867 37.5604 4.154 39.7937 5.896 41.759C7.638 43.7244 9.715 45.2653 12.127 46.382C14.5837 47.454 17.219 47.99 20.033 47.99C22.3557 47.99 24.2317 47.521 25.661 46.583C27.135 45.645 28.2293 44.4613 28.944 43.032C29.6587 41.558 30.016 40.1064 30.016 38.677C30.016 36.7564 29.48 35.2154 28.408 34.054C27.336 32.848 25.929 31.8877 24.187 31.173C22.445 30.4137 20.502 29.766 18.358 29.23C16.2587 28.694 14.1593 28.1134 12.06 27.488C9.96067 26.8627 8.04 26.0587 6.298 25.076C4.556 24.0487 3.149 22.7087 2.077 21.056C1.005 19.3587 0.469 17.2147 0.469 14.624C0.469 11.542 1.206 8.97368 2.68 6.91902C4.19867 4.81968 6.20867 3.23402 8.71 2.16202C11.2113 1.09002 13.9137 0.554016 16.817 0.554016C18.291 0.554016 19.7873 0.732683 21.306 1.09002C22.8247 1.40268 24.2317 1.80468 25.527 2.29602C26.8223 2.74268 27.805 3.16702 28.475 3.56902C29.547 4.14968 30.3733 4.14968 30.954 3.56902C31.4007 3.12235 31.7357 2.83202 31.959 2.69802C32.227 2.51935 32.361 2.43002 32.361 2.43002C32.7183 2.07268 33.098 2.00568 33.5 2.22902C33.902 2.40768 34.103 2.78735 34.103 3.36802V14.825C34.103 15.4057 33.8127 15.763 33.232 15.897C32.696 16.031 32.3163 15.8077 32.093 15.227C31.1103 13.0384 29.8597 11.006 28.341 9.13002C26.867 7.25402 25.1473 5.73535 23.182 4.57402C21.2613 3.41268 19.1397 2.83202 16.817 2.83202C14.8963 2.83202 13.199 3.25635 11.725 4.10501C10.251 4.90902 9.08967 5.98102 8.241 7.32102C7.39233 8.66102 6.968 10.1573 6.968 11.81C6.968 13.686 7.504 15.1824 8.576 16.299C9.69267 17.4157 11.1443 18.309 12.931 18.979C14.7177 19.649 16.683 20.2297 18.827 20.721C21.0157 21.2124 23.182 21.7707 25.326 22.396C27.47 22.9767 29.4353 23.7807 31.222 24.808C33.0087 25.8354 34.438 27.22 35.51 28.962C36.6267 30.6593 37.185 32.8927 37.185 35.662C37.185 38.8334 36.4257 41.558 34.907 43.836C33.3883 46.114 31.3113 47.856 28.676 49.062C26.0407 50.2233 23.048 50.804 19.698 50.804Z" fill="#0F161F"/>
<path d="M53.9554 50.804C53.0621 50.804 52.4367 50.2904 52.0794 49.263C51.9454 48.9057 51.6774 48.124 51.2754 46.918C50.8734 45.712 50.3821 44.2603 49.8014 42.563C49.2207 40.821 48.5954 39.012 47.9254 37.136C47.3001 35.2154 46.6971 33.384 46.1164 31.642C45.5357 29.8554 45.0221 28.3367 44.5754 27.086C44.1734 25.7907 43.9054 24.9197 43.7714 24.473C43.3247 23.0437 42.8334 22.0164 42.2974 21.391C41.7614 20.7657 41.0467 20.453 40.1534 20.453C39.4834 20.453 39.1484 20.0734 39.1484 19.314C39.1484 18.5994 39.4834 18.242 40.1534 18.242C40.6447 18.242 41.5157 18.2867 42.7664 18.376C44.0617 18.4207 45.2901 18.443 46.4514 18.443C47.2554 18.443 48.1041 18.4207 48.9974 18.376C49.9354 18.3314 50.8064 18.309 51.6104 18.309C52.4144 18.2643 52.9727 18.242 53.2854 18.242C53.9554 18.242 54.2904 18.5994 54.2904 19.314C54.2904 20.0734 53.9554 20.453 53.2854 20.453C52.1687 20.453 51.4318 20.6987 51.0744 21.19C50.7171 21.6814 50.6277 22.2843 50.8064 22.999C50.9404 23.4457 51.1861 24.2944 51.5434 25.545C51.9454 26.751 52.3921 28.1357 52.8834 29.699C53.3747 31.2624 53.8661 32.8034 54.3574 34.322C54.8487 35.8407 55.2731 37.136 55.6304 38.208C55.9877 39.28 56.1887 39.9277 56.2334 40.151C56.3227 40.419 56.4344 40.553 56.5684 40.553C56.7471 40.553 56.8811 40.3967 56.9704 40.084C57.0598 39.7714 57.2607 39.146 57.5734 38.208C57.8861 37.2254 58.2434 36.0864 58.6454 34.791C59.0921 33.4957 59.5164 32.2004 59.9184 30.905C60.3651 29.6097 60.7447 28.4707 61.0574 27.488C61.3701 26.5054 61.5711 25.8353 61.6604 25.478C62.1964 23.736 62.0847 22.463 61.3254 21.659C60.5661 20.855 59.6727 20.453 58.6454 20.453C57.9754 20.453 57.6404 20.0734 57.6404 19.314C57.6404 18.5994 57.9754 18.242 58.6454 18.242C59.1367 18.242 60.0078 18.2867 61.2584 18.376C62.5538 18.4207 63.7821 18.443 64.9434 18.443C66.1047 18.443 67.4001 18.4207 68.8294 18.376C70.2587 18.2867 71.2191 18.242 71.7104 18.242C72.4251 18.242 72.7824 18.5994 72.7824 19.314C72.7824 20.0734 72.4251 20.453 71.7104 20.453C70.5937 20.453 69.8567 20.6987 69.4994 21.19C69.1867 21.6814 69.1197 22.2843 69.2984 22.999C69.4324 23.4457 69.6781 24.2944 70.0354 25.545C70.4374 26.751 70.8841 28.1357 71.3754 29.699C71.8667 31.2624 72.3581 32.8034 72.8494 34.322C73.3407 35.8407 73.7651 37.136 74.1224 38.208C74.4797 39.28 74.6807 39.9277 74.7254 40.151C74.8147 40.419 74.9264 40.553 75.0604 40.553C75.2391 40.553 75.3731 40.3967 75.4624 40.084C75.5517 39.7714 75.7527 39.146 76.0654 38.208C76.3781 37.2254 76.7354 36.1087 77.1374 34.858C77.5394 33.5627 77.9414 32.2674 78.3434 30.972C78.7901 29.632 79.1697 28.4707 79.4824 27.488C79.7951 26.5054 80.0184 25.8353 80.1524 25.478C80.6884 23.736 80.5321 22.463 79.6834 21.659C78.8794 20.855 77.9414 20.453 76.8694 20.453C76.1994 20.453 75.8644 20.0734 75.8644 19.314C75.8644 18.5994 76.1994 18.242 76.8694 18.242C77.3607 18.242 78.0977 18.2867 79.0804 18.376C80.0631 18.4207 81.1351 18.443 82.2964 18.443C83.4577 18.443 84.4404 18.4207 85.2444 18.376C86.0931 18.2867 86.7631 18.242 87.2544 18.242C87.9244 18.242 88.2594 18.5994 88.2594 19.314C88.2594 20.0734 87.9244 20.453 87.2544 20.453C86.3611 20.453 85.3784 21.1007 84.3064 22.396C83.2791 23.6913 82.3634 25.545 81.5594 27.957C81.2467 28.895 80.8224 30.1457 80.2864 31.709C79.7951 33.2724 79.2367 34.9697 78.6114 36.801C78.0307 38.6324 77.4501 40.419 76.8694 42.161C76.3334 43.903 75.8421 45.4217 75.3954 46.717C74.9934 47.9677 74.7031 48.8387 74.5244 49.33C74.3457 49.7767 74.1001 50.134 73.7874 50.402C73.5194 50.67 73.0727 50.804 72.4474 50.804C71.5094 50.804 70.8617 50.2904 70.5044 49.263C70.3704 48.861 70.0801 47.99 69.6334 46.65C69.1867 45.31 68.6731 43.7467 68.0924 41.96C67.5117 40.1287 66.9087 38.2973 66.2834 36.466C65.7027 34.6347 65.1667 33.0267 64.6754 31.642C64.2287 30.2127 63.9161 29.2524 63.7374 28.761C63.6481 28.493 63.4917 28.359 63.2684 28.359C63.0897 28.3144 62.9557 28.426 62.8664 28.694C62.5537 29.632 62.1294 30.8603 61.5934 32.379C61.1021 33.8977 60.5661 35.528 59.9854 37.27C59.4494 39.012 58.8911 40.7317 58.3104 42.429C57.7744 44.0817 57.3054 45.5333 56.9034 46.784C56.5014 47.99 56.2111 48.8387 56.0324 49.33C55.8538 49.7767 55.6304 50.134 55.3624 50.402C55.0944 50.67 54.6254 50.804 53.9554 50.804Z" fill="#0F161F"/>
<path d="M93.1127 50C92.3981 50 92.0407 49.6427 92.0407 48.928C92.0407 48.1687 92.3981 47.789 93.1127 47.789C94.8101 47.789 95.9491 47.4317 96.5297 46.717C97.1104 46.0024 97.4007 44.841 97.4007 43.233V24.205C97.4007 22.9544 97.2667 22.128 96.9987 21.726C96.7754 21.2794 96.3511 21.0337 95.7257 20.989C95.4131 20.9444 94.8771 20.8997 94.1177 20.855C93.4031 20.7657 92.8894 20.6987 92.5767 20.654C91.9514 20.52 91.6387 20.1404 91.6387 19.515C91.6387 18.8004 91.9737 18.443 92.6437 18.443C92.7777 18.443 93.3361 18.443 94.3187 18.443C95.3014 18.3984 96.3957 18.376 97.6017 18.376C98.8524 18.376 99.9914 18.376 101.019 18.376C102.046 18.3314 102.694 18.309 102.962 18.309C104.078 18.309 104.637 18.8227 104.637 19.85V43.233C104.637 44.841 104.905 46.0024 105.441 46.717C105.977 47.4317 106.959 47.789 108.389 47.789C109.059 47.789 109.394 48.1687 109.394 48.928C109.394 49.6427 109.059 50 108.389 50C108.076 50 107.473 49.9777 106.58 49.933C105.686 49.8884 104.726 49.866 103.699 49.866C102.671 49.8213 101.756 49.799 100.952 49.799C100.192 49.799 99.2544 49.8213 98.1377 49.866C97.0211 49.866 95.9714 49.8884 94.9887 49.933C94.0507 49.9777 93.4254 50 93.1127 50ZM100.483 11.006C99.1427 11.006 98.0037 10.537 97.0657 9.59901C96.1277 8.66102 95.6587 7.52202 95.6587 6.18201C95.6587 4.84202 96.1277 3.70302 97.0657 2.76502C98.0037 1.82702 99.1427 1.35802 100.483 1.35802C101.823 1.35802 102.962 1.82702 103.9 2.76502C104.838 3.70302 105.307 4.84202 105.307 6.18201C105.307 7.52202 104.838 8.66102 103.9 9.59901C102.962 10.537 101.823 11.006 100.483 11.006Z" fill="#0F161F"/>
<path d="M129.842 50.804C128.234 50.804 126.603 50.5584 124.951 50.067C123.298 49.6204 121.913 49.1737 120.797 48.727C120.261 48.5037 119.769 48.4144 119.323 48.459C118.921 48.5037 118.541 48.6377 118.184 48.861C117.916 49.0397 117.67 49.2407 117.447 49.464C117.268 49.6427 117.067 49.8437 116.844 50.067C116.397 50.5137 115.928 50.6477 115.437 50.469C114.99 50.2904 114.767 49.8884 114.767 49.263V39.95C114.767 39.3693 115.012 39.0344 115.504 38.945C116.04 38.8557 116.442 39.0344 116.71 39.481C120.06 44.975 124.482 47.722 129.976 47.722C132.12 47.722 133.929 47.2753 135.403 46.382C136.921 45.4887 137.681 44.171 137.681 42.429C137.681 41.2677 137.145 40.3744 136.073 39.749C135.001 39.1237 133.616 38.6324 131.919 38.275C130.221 37.873 128.435 37.4487 126.559 37.002C124.683 36.5554 122.896 35.9524 121.199 35.193C119.501 34.4337 118.117 33.384 117.045 32.044C115.973 30.6594 115.437 28.828 115.437 26.55C115.437 25.0314 115.839 23.5797 116.643 22.195C117.491 20.8104 118.764 19.6937 120.462 18.845C122.159 17.9517 124.303 17.505 126.894 17.505C128.368 17.505 129.819 17.6837 131.249 18.041C132.723 18.3537 133.996 18.7334 135.068 19.18C136.318 19.6714 137.212 19.6937 137.748 19.247C137.971 19.0683 138.194 18.8897 138.418 18.711C138.686 18.4877 138.931 18.2867 139.155 18.108C139.557 17.84 139.914 17.7507 140.227 17.84C140.584 17.8847 140.763 18.1974 140.763 18.778V27.153C140.763 27.7337 140.495 28.091 139.959 28.225C139.423 28.3144 139.043 28.1357 138.82 27.689C137.703 25.0537 136.117 23.1554 134.063 21.994C132.008 20.8327 129.953 20.252 127.899 20.252C125.576 20.252 123.812 20.7657 122.606 21.793C121.4 22.7757 120.797 23.9147 120.797 25.21C120.797 26.282 121.333 27.1084 122.405 27.689C123.477 28.225 124.839 28.6717 126.492 29.029C128.189 29.3417 129.976 29.699 131.852 30.101C133.728 30.4584 135.492 31.0167 137.145 31.776C138.842 32.5353 140.227 33.6297 141.299 35.059C142.371 36.4437 142.907 38.3197 142.907 40.687C142.907 42.563 142.371 44.2827 141.299 45.846C140.227 47.3647 138.708 48.5707 136.743 49.464C134.777 50.3573 132.477 50.804 129.842 50.804Z" fill="#0F161F"/>
<path d="M163.996 50.804C162.388 50.804 160.758 50.5584 159.105 50.067C157.452 49.6204 156.068 49.1737 154.951 48.727C154.415 48.5037 153.924 48.4144 153.477 48.459C153.075 48.5037 152.695 48.6377 152.338 48.861C152.07 49.0397 151.824 49.2407 151.601 49.464C151.422 49.6427 151.221 49.8437 150.998 50.067C150.551 50.5137 150.082 50.6477 149.591 50.469C149.144 50.2904 148.921 49.8884 148.921 49.263V39.95C148.921 39.3693 149.167 39.0344 149.658 38.945C150.194 38.8557 150.596 39.0344 150.864 39.481C154.214 44.975 158.636 47.722 164.13 47.722C166.274 47.722 168.083 47.2753 169.557 46.382C171.076 45.4887 171.835 44.171 171.835 42.429C171.835 41.2677 171.299 40.3744 170.227 39.749C169.155 39.1237 167.77 38.6324 166.073 38.275C164.376 37.873 162.589 37.4487 160.713 37.002C158.837 36.5554 157.05 35.9524 155.353 35.193C153.656 34.4337 152.271 33.384 151.199 32.044C150.127 30.6594 149.591 28.828 149.591 26.55C149.591 25.0314 149.993 23.5797 150.797 22.195C151.646 20.8104 152.919 19.6937 154.616 18.845C156.313 17.9517 158.457 17.505 161.048 17.505C162.522 17.505 163.974 17.6837 165.403 18.041C166.877 18.3537 168.15 18.7334 169.222 19.18C170.473 19.6714 171.366 19.6937 171.902 19.247C172.125 19.0683 172.349 18.8897 172.572 18.711C172.84 18.4877 173.086 18.2867 173.309 18.108C173.711 17.84 174.068 17.7507 174.381 17.84C174.738 17.8847 174.917 18.1974 174.917 18.778V27.153C174.917 27.7337 174.649 28.091 174.113 28.225C173.577 28.3144 173.197 28.1357 172.974 27.689C171.857 25.0537 170.272 23.1554 168.217 21.994C166.162 20.8327 164.108 20.252 162.053 20.252C159.73 20.252 157.966 20.7657 156.76 21.793C155.554 22.7757 154.951 23.9147 154.951 25.21C154.951 26.282 155.487 27.1084 156.559 27.689C157.631 28.225 158.993 28.6717 160.646 29.029C162.343 29.3417 164.13 29.699 166.006 30.101C167.882 30.4584 169.646 31.0167 171.299 31.776C172.996 32.5353 174.381 33.6297 175.453 35.059C176.525 36.4437 177.061 38.3197 177.061 40.687C177.061 42.563 176.525 44.2827 175.453 45.846C174.381 47.3647 172.862 48.5707 170.897 49.464C168.932 50.3573 166.631 50.804 163.996 50.804Z" fill="#0F161F"/>
<path d="M196.37 50.804C195.834 50.804 195.41 50.3127 195.097 49.33C195.008 49.0174 194.74 48.1464 194.293 46.717C193.847 45.243 193.288 43.4117 192.618 41.223C191.993 38.9897 191.278 36.5554 190.474 33.92C189.715 31.2847 188.933 28.627 188.129 25.947C187.37 23.267 186.633 20.721 185.918 18.309C185.204 15.897 184.601 13.82 184.109 12.078C183.618 10.2913 183.261 9.01835 183.037 8.25902C182.501 6.29368 181.787 4.99835 180.893 4.37302C180 3.70302 178.973 3.36802 177.811 3.36802C177.588 3.36802 177.387 3.27868 177.208 3.10002C177.03 2.87668 176.94 2.65335 176.94 2.43002C176.94 1.71535 177.231 1.35802 177.811 1.35802C178.303 1.35802 179.129 1.40268 180.29 1.49202C181.452 1.58135 182.881 1.62601 184.578 1.62601C185.874 1.62601 187.191 1.60368 188.531 1.55902C189.916 1.51435 191.122 1.46968 192.149 1.42502C193.177 1.38035 193.824 1.35802 194.092 1.35802C194.45 1.35802 194.695 1.46968 194.829 1.69302C195.008 1.91635 195.097 2.16202 195.097 2.43002C195.097 2.65335 195.008 2.87668 194.829 3.10002C194.651 3.27868 194.405 3.36802 194.092 3.36802C193.065 3.36802 192.261 3.79235 191.68 4.64102C191.1 5.44502 191.033 6.76268 191.479 8.59402C191.613 9.13002 191.859 10.135 192.216 11.609C192.574 13.0383 192.998 14.7357 193.489 16.701C193.981 18.6217 194.494 20.6317 195.03 22.731C195.611 24.7857 196.147 26.751 196.638 28.627C197.174 30.503 197.621 32.111 197.978 33.451C198.38 34.791 198.671 35.662 198.849 36.064C199.162 36.734 199.385 36.801 199.519 36.265C199.609 35.997 199.787 35.2824 200.055 34.121C200.368 32.9597 200.748 31.508 201.194 29.766C201.641 28.024 202.11 26.1927 202.601 24.272C203.093 22.3067 203.562 20.386 204.008 18.51C204.5 16.634 204.946 14.9814 205.348 13.552C205.75 12.078 206.041 10.9837 206.219 10.269C206.755 8.34835 206.554 6.71802 205.616 5.37802C204.678 4.03802 203.316 3.36802 201.529 3.36802C201.217 3.36802 200.971 3.27868 200.792 3.10002C200.614 2.87668 200.524 2.65335 200.524 2.43002C200.524 1.71535 200.859 1.35802 201.529 1.35802C201.797 1.35802 202.4 1.38035 203.338 1.42502C204.276 1.46968 205.371 1.51435 206.621 1.55902C207.872 1.60368 209.078 1.62601 210.239 1.62601C211.535 1.62601 212.808 1.60368 214.058 1.55902C215.354 1.51435 216.448 1.46968 217.341 1.42502C218.279 1.38035 218.86 1.35802 219.083 1.35802C219.709 1.35802 220.021 1.71535 220.021 2.43002C220.021 2.65335 219.954 2.87668 219.82 3.10002C219.686 3.27868 219.441 3.36802 219.083 3.36802C217.297 3.36802 216.091 3.74768 215.465 4.50702C214.885 5.22168 214.818 6.56168 215.264 8.52702C215.398 9.01835 215.644 10.0234 216.001 11.542C216.403 13.016 216.872 14.7804 217.408 16.835C217.944 18.8897 218.503 21.0114 219.083 23.2C219.664 25.3887 220.222 27.4434 220.758 29.364C221.294 31.2847 221.719 32.8704 222.031 34.121C222.389 35.327 222.59 35.9747 222.634 36.064C222.724 36.332 222.835 36.4883 222.969 36.533C223.148 36.5777 223.26 36.4884 223.304 36.265C223.349 35.863 223.505 35.0367 223.773 33.786C224.086 32.5354 224.443 31.0614 224.845 29.364C225.292 27.622 225.739 25.7907 226.185 23.87C226.677 21.9494 227.146 20.0957 227.592 18.309C228.039 16.5224 228.441 14.959 228.798 13.619C229.156 12.2343 229.401 11.2294 229.535 10.604C230.027 8.63868 230.138 7.14235 229.87 6.11502C229.647 5.04302 229.156 4.32835 228.396 3.97102C227.682 3.56902 226.833 3.36802 225.85 3.36802C225.538 3.36802 225.292 3.27868 225.113 3.10002C224.935 2.87668 224.845 2.65335 224.845 2.43002C224.845 1.71535 225.18 1.35802 225.85 1.35802C226.297 1.35802 227.213 1.40268 228.597 1.49202C229.982 1.58135 231.3 1.62601 232.55 1.62601C234.784 1.62601 236.436 1.58135 237.508 1.49202C238.625 1.40268 239.407 1.35802 239.853 1.35802C240.166 1.35802 240.389 1.46968 240.523 1.69302C240.702 1.91635 240.791 2.16202 240.791 2.43002C240.791 2.65335 240.702 2.87668 240.523 3.10002C240.345 3.27868 240.121 3.36802 239.853 3.36802C237.799 3.36802 236.235 3.88168 235.163 4.90902C234.091 5.89168 233.22 7.43268 232.55 9.53202C232.461 9.84468 232.193 10.7604 231.746 12.279C231.344 13.7977 230.831 15.7183 230.205 18.041C229.58 20.319 228.91 22.8203 228.195 25.545C227.481 28.225 226.766 30.9274 226.051 33.652C225.337 36.332 224.667 38.811 224.041 41.089C223.416 43.367 222.902 45.243 222.5 46.717C222.143 48.191 221.92 49.0397 221.83 49.263C221.696 49.7097 221.54 50.067 221.361 50.335C221.183 50.6477 220.781 50.804 220.155 50.804C219.843 50.804 219.597 50.6924 219.418 50.469C219.284 50.2904 219.106 49.8884 218.882 49.263C218.793 48.995 218.525 48.1687 218.078 46.784C217.676 45.3993 217.163 43.635 216.537 41.491C215.912 39.347 215.242 37.0467 214.527 34.59C213.813 32.0887 213.098 29.6097 212.383 27.153C211.669 24.6964 210.999 22.463 210.373 20.453C209.793 18.3984 209.301 16.7457 208.899 15.495C208.542 14.2443 208.341 13.619 208.296 13.619C208.296 13.619 208.274 13.619 208.229 13.619C207.961 13.485 207.783 13.5297 207.693 13.753C207.738 13.485 207.626 13.82 207.358 14.758C207.09 15.696 206.711 17.0584 206.219 18.845C205.728 20.587 205.17 22.597 204.544 24.875C203.964 27.1083 203.338 29.4534 202.668 31.91C202.043 34.322 201.44 36.6223 200.859 38.811C200.1 41.5803 199.452 43.97 198.916 45.98C198.38 47.9454 198.068 49.1067 197.978 49.464C197.844 49.866 197.688 50.1787 197.509 50.402C197.375 50.67 196.996 50.804 196.37 50.804Z" fill="#0F161F"/>
<path d="M248.136 50.804C245.233 50.804 242.821 50.134 240.9 48.794C239.024 47.454 238.086 45.2207 238.086 42.094C238.086 39.5034 238.868 37.3594 240.431 35.662C241.994 33.9647 244.183 32.6917 246.997 31.843C249.856 30.9944 253.183 30.57 256.98 30.57C257.471 30.57 257.717 30.3243 257.717 29.833V27.957C257.717 25.545 257.293 23.6467 256.444 22.262C255.595 20.8327 254.233 20.118 252.357 20.118C250.615 20.118 249.297 20.453 248.404 21.123C247.511 21.7483 247.287 22.5747 247.734 23.602C248.449 25.1207 248.426 26.483 247.667 27.689C246.908 28.8504 245.612 29.431 243.781 29.431C242.664 29.431 241.726 29.0737 240.967 28.359C240.208 27.5997 239.828 26.55 239.828 25.21C239.828 23.87 240.386 22.6193 241.503 21.458C242.62 20.2967 244.138 19.3587 246.059 18.644C248.024 17.8847 250.235 17.505 252.692 17.505C256.757 17.505 259.816 18.3984 261.871 20.185C263.926 21.9717 264.953 24.4284 264.953 27.555V41.759C264.953 43.5457 265.132 44.707 265.489 45.243C265.891 45.7343 266.382 45.98 266.963 45.98C267.41 45.98 267.789 45.913 268.102 45.779C268.459 45.6004 268.727 45.4217 268.906 45.243C269.397 44.7517 269.889 44.774 270.38 45.31C270.603 45.5333 270.693 45.779 270.648 46.047C270.603 46.315 270.492 46.583 270.313 46.851C269.688 47.8784 268.906 48.7493 267.968 49.464C267.075 50.134 265.98 50.469 264.685 50.469C263.211 50.469 261.938 50.1564 260.866 49.531C259.839 48.9057 259.057 47.9007 258.521 46.516C258.387 46.1587 258.208 46.0023 257.985 46.047C257.762 46.0917 257.561 46.2257 257.382 46.449C256.533 47.655 255.394 48.6824 253.965 49.531C252.536 50.3797 250.593 50.804 248.136 50.804ZM251.486 46.784C252.781 46.784 253.898 46.4267 254.836 45.712C255.774 44.9527 256.489 44.0594 256.98 43.032C257.471 42.0047 257.717 41.022 257.717 40.084V33.92C257.717 33.25 257.404 32.915 256.779 32.915C253.518 32.915 250.905 33.5404 248.94 34.791C246.975 35.997 245.992 38.0517 245.992 40.955C245.992 42.697 246.327 43.9923 246.997 44.841C247.667 45.645 248.426 46.181 249.275 46.449C250.168 46.6724 250.905 46.784 251.486 46.784Z" fill="#0F161F"/>
<path d="M286.006 50.804C284.086 50.804 282.411 50.3573 280.981 49.464C279.552 48.5707 278.837 46.8957 278.837 44.439V21.458C278.837 21.1007 278.636 20.922 278.234 20.922H274.147C273.433 20.922 273.075 20.5647 273.075 19.85V19.649C273.075 19.3364 273.165 19.113 273.343 18.979C273.567 18.8003 273.835 18.6664 274.147 18.577C276.738 17.6837 278.726 16.3437 280.11 14.557C281.54 12.7257 282.433 10.1797 282.79 6.91902C282.79 6.20435 283.148 5.84702 283.862 5.84702H285.001C285.269 5.84702 285.515 5.95868 285.738 6.18201C285.962 6.36068 286.073 6.60635 286.073 6.91902V17.706C286.073 18.108 286.252 18.309 286.609 18.309H294.247C294.962 18.309 295.319 18.644 295.319 19.314V19.85C295.319 20.5647 294.962 20.922 294.247 20.922H286.609C286.252 20.922 286.073 21.1007 286.073 21.458V42.094C286.073 44.5507 287.346 45.779 289.892 45.779C291.098 45.779 292.17 45.4217 293.108 44.707C294.091 43.9924 294.828 43.166 295.319 42.228C295.677 41.558 296.235 41.4463 296.994 41.893C297.307 42.0717 297.463 42.295 297.463 42.563C297.463 42.831 297.396 43.1437 297.262 43.501C296.503 45.4217 295.185 47.119 293.309 48.593C291.478 50.067 289.044 50.804 286.006 50.804Z" fill="#0F161F"/>
<path d="M317.371 50.804C314.468 50.804 311.788 50.268 309.331 49.196C306.919 48.124 304.976 46.4044 303.502 44.037C302.028 41.625 301.291 38.4984 301.291 34.657C301.291 31.441 301.961 28.5377 303.301 25.947C304.641 23.3564 306.584 21.3017 309.13 19.783C311.676 18.2644 314.758 17.505 318.376 17.505C320.341 17.505 322.173 17.8847 323.87 18.644C325.567 19.3587 326.952 20.3414 328.024 21.592C329.096 22.8427 329.632 24.2944 329.632 25.947C329.632 27.1977 329.208 28.2697 328.359 29.163C327.555 30.0117 326.505 30.436 325.21 30.436C323.915 30.436 322.932 30.1233 322.262 29.498C321.637 28.828 321.346 27.9794 321.391 26.952C321.436 26.3267 321.57 25.8353 321.793 25.478C322.061 25.076 322.329 24.6517 322.597 24.205C322.865 23.7584 322.999 23.2 322.999 22.53C322.999 22.0387 322.642 21.5027 321.927 20.922C321.212 20.3413 320.185 20.051 318.845 20.051C317.416 20.051 315.942 20.52 314.423 21.458C312.949 22.3513 311.698 23.87 310.671 26.014C309.688 28.1134 309.197 30.9943 309.197 34.657C309.197 38.8557 310.113 41.9824 311.944 44.037C313.775 46.0917 316.053 47.119 318.778 47.119C320.565 47.119 322.106 46.784 323.401 46.114C324.741 45.444 325.858 44.6177 326.751 43.635C327.689 42.6077 328.359 41.6027 328.761 40.62C329.074 39.9054 329.587 39.7044 330.302 40.017C331.017 40.285 331.218 40.7987 330.905 41.558C330.414 42.8534 329.654 44.2157 328.627 45.645C327.644 47.0743 326.26 48.3027 324.473 49.33C322.686 50.3127 320.319 50.804 317.371 50.804Z" fill="#0F161F"/>
<path d="M335.791 50C335.077 50 334.719 49.6204 334.719 48.861C334.719 48.1464 335.077 47.789 335.791 47.789C337.489 47.789 338.628 47.454 339.208 46.784C339.789 46.114 340.079 44.975 340.079 43.367V7.32102C340.079 6.07035 339.945 5.26635 339.677 4.90902C339.454 4.50702 339.03 4.23902 338.404 4.10501C338.092 4.01568 337.556 3.94868 336.796 3.90402C336.082 3.81468 335.568 3.74768 335.255 3.70302C334.63 3.61368 334.317 3.25635 334.317 2.63102C334.317 1.96102 334.652 1.58135 335.322 1.49202C335.456 1.49202 336.015 1.49202 336.997 1.49202C337.98 1.44735 339.074 1.42502 340.28 1.42502C341.531 1.42502 342.67 1.42502 343.697 1.42502C344.725 1.38035 345.372 1.35802 345.64 1.35802C346.757 1.35802 347.315 1.93868 347.315 3.10002V22.664C347.315 22.8427 347.382 22.9543 347.516 22.999C347.65 22.999 347.784 22.9097 347.918 22.731C348.901 21.257 350.33 20.0287 352.206 19.046C354.127 18.0187 356.249 17.505 358.571 17.505C360.269 17.505 361.787 17.84 363.127 18.51C364.467 19.18 365.517 20.3414 366.276 21.994C367.08 23.602 367.482 25.88 367.482 28.828V43.233C367.482 44.8857 367.706 46.0693 368.152 46.784C368.644 47.454 369.448 47.789 370.564 47.789C371.279 47.789 371.636 48.1464 371.636 48.861C371.636 49.6204 371.279 50 370.564 50C370.252 50 369.693 49.9777 368.889 49.933C368.085 49.8884 367.214 49.866 366.276 49.866C365.338 49.8213 364.467 49.799 363.663 49.799C362.904 49.799 362.033 49.8213 361.05 49.866C360.068 49.866 359.174 49.8884 358.37 49.933C357.566 49.9777 356.986 50 356.628 50C355.958 50 355.623 49.6204 355.623 48.861C355.623 48.1464 355.958 47.789 356.628 47.789C358.236 47.789 359.241 47.454 359.643 46.784C360.045 46.114 360.246 44.975 360.246 43.367V29.364C360.246 26.55 359.8 24.5177 358.906 23.267C358.058 22.0164 356.718 21.391 354.886 21.391C353.68 21.391 352.497 21.7707 351.335 22.53C350.174 23.2894 349.214 24.2944 348.454 25.545C347.695 26.7957 347.315 28.2027 347.315 29.766V43.233C347.315 44.8857 347.583 46.0693 348.119 46.784C348.655 47.454 349.526 47.789 350.732 47.789C351.402 47.789 351.737 48.1464 351.737 48.861C351.737 49.6204 351.402 50 350.732 50C350.42 50 349.839 49.9777 348.99 49.933C348.142 49.8884 347.226 49.866 346.243 49.866C345.305 49.8213 344.434 49.799 343.63 49.799C342.871 49.799 341.933 49.8213 340.816 49.866C339.7 49.866 338.65 49.8884 337.667 49.933C336.729 49.9777 336.104 50 335.791 50Z" fill="#0F161F"/>
<path d="M391.966 50.804C386.874 50.804 382.876 49.4194 379.973 46.65C377.114 43.8807 375.685 39.9054 375.685 34.724C375.685 31.4634 376.332 28.5377 377.628 25.947C378.923 23.3564 380.754 21.3017 383.122 19.783C385.534 18.2644 388.325 17.505 391.497 17.505C393.909 17.505 396.008 17.974 397.795 18.912C399.581 19.85 401.055 21.0784 402.217 22.597C403.378 24.1157 404.249 25.7684 404.83 27.555C405.41 29.297 405.701 31.0167 405.701 32.714C405.701 33.4287 405.254 33.786 404.361 33.786H384.529C383.903 33.786 383.591 34.1434 383.591 34.858C383.591 37.9847 383.948 40.419 384.663 42.161C385.377 43.903 386.405 45.1314 387.745 45.846C389.129 46.5607 390.76 46.918 392.636 46.918C394.914 46.918 396.946 46.4267 398.733 45.444C400.564 44.4614 402.06 43.233 403.222 41.759C403.713 41.1784 404.271 41.089 404.897 41.491C405.522 41.893 405.611 42.429 405.165 43.099C404.271 44.439 403.244 45.6897 402.083 46.851C400.966 48.0124 399.581 48.9727 397.929 49.732C396.321 50.4467 394.333 50.804 391.966 50.804ZM384.998 31.173H396.321C397.214 31.173 397.661 30.7487 397.661 29.9C397.661 26.9967 397.192 24.607 396.254 22.731C395.36 20.855 393.73 19.917 391.363 19.917C389.353 19.917 387.745 20.8327 386.539 22.664C385.377 24.4507 384.506 26.9074 383.926 30.034C383.792 30.7934 384.149 31.173 384.998 31.173Z" fill="#0F161F"/>
<path d="M426.827 50.804C425.219 50.804 423.589 50.5584 421.936 50.067C420.283 49.6204 418.899 49.1737 417.782 48.727C417.246 48.5037 416.755 48.4144 416.308 48.459C415.906 48.5037 415.526 48.6377 415.169 48.861C414.901 49.0397 414.655 49.2407 414.432 49.464C414.253 49.6427 414.052 49.8437 413.829 50.067C413.382 50.5137 412.913 50.6477 412.422 50.469C411.975 50.2904 411.752 49.8884 411.752 49.263V39.95C411.752 39.3693 411.998 39.0344 412.489 38.945C413.025 38.8557 413.427 39.0344 413.695 39.481C417.045 44.975 421.467 47.722 426.961 47.722C429.105 47.722 430.914 47.2753 432.388 46.382C433.907 45.4887 434.666 44.171 434.666 42.429C434.666 41.2677 434.13 40.3744 433.058 39.749C431.986 39.1237 430.602 38.6324 428.904 38.275C427.207 37.873 425.42 37.4487 423.544 37.002C421.668 36.5554 419.882 35.9524 418.184 35.193C416.487 34.4337 415.102 33.384 414.03 32.044C412.958 30.6594 412.422 28.828 412.422 26.55C412.422 25.0314 412.824 23.5797 413.628 22.195C414.477 20.8104 415.75 19.6937 417.447 18.845C419.145 17.9517 421.288 17.505 423.879 17.505C425.353 17.505 426.805 17.6837 428.234 18.041C429.708 18.3537 430.981 18.7334 432.053 19.18C433.304 19.6714 434.197 19.6937 434.733 19.247C434.956 19.0683 435.18 18.8897 435.403 18.711C435.671 18.4877 435.917 18.2867 436.14 18.108C436.542 17.84 436.899 17.7507 437.212 17.84C437.569 17.8847 437.748 18.1974 437.748 18.778V27.153C437.748 27.7337 437.48 28.091 436.944 28.225C436.408 28.3144 436.029 28.1357 435.805 27.689C434.689 25.0537 433.103 23.1554 431.048 21.994C428.993 20.8327 426.939 20.252 424.884 20.252C422.561 20.252 420.797 20.7657 419.591 21.793C418.385 22.7757 417.782 23.9147 417.782 25.21C417.782 26.282 418.318 27.1084 419.39 27.689C420.462 28.225 421.825 28.6717 423.477 29.029C425.175 29.3417 426.961 29.699 428.837 30.101C430.713 30.4584 432.477 31.0167 434.13 31.776C435.827 32.5353 437.212 33.6297 438.284 35.059C439.356 36.4437 439.892 38.3197 439.892 40.687C439.892 42.563 439.356 44.2827 438.284 45.846C437.212 47.3647 435.693 48.5707 433.728 49.464C431.763 50.3573 429.462 50.804 426.827 50.804Z" fill="#0F161F"/>
<path d="M80.0594 74.2272L74.6164 91.8233H71.8679L67.5028 77.6606L62.9759 91.8233L60.2544 91.8485L55 74.2272H57.6137L61.7095 89.1473L66.2363 74.2272H68.9848L73.2961 89.0968L77.4187 74.2272H80.0594Z" fill="#0F161F"/>
<path d="M93.8444 87.9102H85.6529L84.144 91.8233H81.5572L88.3475 74.3282H91.1768L97.9401 91.8233H95.3533L93.8444 87.9102ZM93.1438 86.0421L89.7486 77.1557L86.3535 86.0421H93.1438Z" fill="#0F161F"/>
<path d="M112.459 74.2272V76.0954H107.339V91.8233H104.887V76.0954H99.7408V74.2272H112.459Z" fill="#0F161F"/>
<path d="M114.561 83.0126C114.561 81.2959 114.974 79.756 115.801 78.3927C116.627 77.0126 117.75 75.9355 119.169 75.1613C120.606 74.3871 122.196 74 123.938 74C125.986 74 127.774 74.4628 129.301 75.3885C130.827 76.3142 131.941 77.6269 132.642 79.3268H129.705C129.184 78.2665 128.429 77.4502 127.441 76.878C126.471 76.3058 125.304 76.0196 123.938 76.0196C122.627 76.0196 121.45 76.3058 120.409 76.878C119.367 77.4502 118.549 78.2665 117.956 79.3268C117.364 80.3703 117.067 81.5989 117.067 83.0126C117.067 84.4095 117.364 85.6382 117.956 86.6985C118.549 87.7419 119.367 88.5498 120.409 89.122C121.45 89.6943 122.627 89.9804 123.938 89.9804C125.304 89.9804 126.471 89.7027 127.441 89.1473C128.429 88.575 129.184 87.7588 129.705 86.6985H132.642C131.941 88.3815 130.827 89.6858 129.301 90.6115C127.774 91.5203 125.986 91.9748 123.938 91.9748C122.196 91.9748 120.606 91.5961 119.169 90.8387C117.75 90.0645 116.627 88.9958 115.801 87.6325C114.974 86.2693 114.561 84.7293 114.561 83.0126Z" fill="#0F161F"/>
<path d="M150.762 74.2272V91.8233H148.31V83.8457H138.744V91.8233H136.292V74.2272H138.744V81.9523H148.31V74.2272H150.762Z" fill="#0F161F"/>
<path d="M157.401 76.0954V81.9776H164.245V83.871H157.401V89.9299H165.053V91.8233H154.949V74.202H165.053V76.0954H157.401Z" fill="#0F161F"/>
<path d="M174.718 92C173.479 92 172.365 91.798 171.377 91.3941C170.407 90.9734 169.644 90.4011 169.087 89.6774C168.53 88.9369 168.242 88.087 168.224 87.1276H170.838C170.928 87.9523 171.287 88.6508 171.916 89.223C172.563 89.7784 173.497 90.0561 174.718 90.0561C175.886 90.0561 176.802 89.7868 177.467 89.2482C178.149 88.6928 178.491 87.986 178.491 87.1276C178.491 86.4544 178.293 85.9074 177.898 85.4867C177.503 85.0659 177.009 84.7461 176.416 84.5273C175.823 84.3086 175.024 84.0729 174.018 83.8205C172.778 83.5175 171.781 83.2146 171.027 82.9116C170.29 82.6087 169.653 82.1374 169.114 81.4979C168.593 80.8415 168.332 79.9663 168.332 78.8724C168.332 77.913 168.593 77.0631 169.114 76.3226C169.635 75.582 170.362 75.0098 171.296 74.6059C172.248 74.202 173.335 74 174.557 74C176.317 74 177.754 74.4123 178.868 75.237C180 76.0617 180.637 77.1557 180.781 78.5189H178.087C177.997 77.8457 177.62 77.2567 176.955 76.7518C176.29 76.23 175.41 75.9691 174.314 75.9691C173.29 75.9691 172.455 76.2216 171.808 76.7265C171.162 77.2146 170.838 77.9046 170.838 78.7966C170.838 79.4362 171.027 79.9579 171.404 80.3619C171.799 80.7658 172.275 81.0771 172.832 81.2959C173.407 81.4979 174.206 81.7335 175.23 82.0028C176.47 82.3226 177.467 82.6424 178.221 82.9621C178.976 83.2651 179.622 83.7447 180.161 84.4011C180.7 85.0407 180.97 85.9158 180.97 87.0266C180.97 87.885 180.727 88.6928 180.242 89.4502C179.757 90.2076 179.039 90.8219 178.087 91.2931C177.134 91.7644 176.012 92 174.718 92Z" fill="#0F161F"/>
<path d="M194.214 76.0954V81.9776H201.058V83.871H194.214V89.9299H201.866V91.8233H191.762V74.202H201.866V76.0954H194.214Z" fill="#0F161F"/>
<path d="M220.343 91.8233H217.891L208.029 77.8121V91.8233H205.577V74.202H208.029L217.891 88.1879V74.202H220.343V91.8233Z" fill="#0F161F"/>
<path d="M223.607 83.0126C223.607 81.2959 224.02 79.756 224.846 78.3927C225.673 77.0126 226.795 75.9355 228.214 75.1613C229.651 74.3871 231.241 74 232.984 74C235.032 74 236.819 74.4628 238.346 75.3885C239.873 76.3142 240.987 77.6269 241.687 79.3268H238.75C238.229 78.2665 237.475 77.4502 236.487 76.878C235.517 76.3058 234.349 76.0196 232.984 76.0196C231.672 76.0196 230.496 76.3058 229.454 76.878C228.412 77.4502 227.595 78.2665 227.002 79.3268C226.409 80.3703 226.113 81.5989 226.113 83.0126C226.113 84.4095 226.409 85.6382 227.002 86.6985C227.595 87.7419 228.412 88.5498 229.454 89.122C230.496 89.6943 231.672 89.9804 232.984 89.9804C234.349 89.9804 235.517 89.7027 236.487 89.1473C237.475 88.575 238.229 87.7588 238.75 86.6985H241.687C240.987 88.3815 239.873 89.6858 238.346 90.6115C236.819 91.5203 235.032 91.9748 232.984 91.9748C231.241 91.9748 229.651 91.5961 228.214 90.8387C226.795 90.0645 225.673 88.9958 224.846 87.6325C224.02 86.2693 223.607 84.7293 223.607 83.0126Z" fill="#0F161F"/>
<path d="M258.487 74.2272L252.37 85.1837V91.8233H249.918V85.1837L243.774 74.2272H246.496L251.131 83.1389L255.765 74.2272H258.487Z" fill="#0F161F"/>
<path d="M260.157 83.0126C260.157 81.2959 260.57 79.756 261.396 78.3927C262.223 77.0126 263.345 75.9355 264.765 75.1613C266.202 74.3871 267.792 74 269.534 74C271.582 74 273.369 74.4628 274.896 75.3885C276.423 76.3142 277.537 77.6269 278.237 79.3268H275.3C274.779 78.2665 274.025 77.4502 273.037 76.878C272.067 76.3058 270.899 76.0196 269.534 76.0196C268.223 76.0196 267.046 76.3058 266.004 76.878C264.962 77.4502 264.145 78.2665 263.552 79.3268C262.959 80.3703 262.663 81.5989 262.663 83.0126C262.663 84.4095 262.959 85.6382 263.552 86.6985C264.145 87.7419 264.962 88.5498 266.004 89.122C267.046 89.6943 268.223 89.9804 269.534 89.9804C270.899 89.9804 272.067 89.7027 273.037 89.1473C274.025 88.575 274.779 87.7588 275.3 86.6985H278.237C277.537 88.3815 276.423 89.6858 274.896 90.6115C273.369 91.5203 271.582 91.9748 269.534 91.9748C267.792 91.9748 266.202 91.5961 264.765 90.8387C263.345 90.0645 262.223 88.9958 261.396 87.6325C260.57 86.2693 260.157 84.7293 260.157 83.0126Z" fill="#0F161F"/>
<path d="M284.34 89.9551H290.914V91.8233H281.887V74.2272H284.34V89.9551Z" fill="#0F161F"/>
<path d="M302.033 92C300.291 92 298.701 91.6213 297.264 90.864C295.827 90.0898 294.686 89.021 293.842 87.6578C293.015 86.2777 292.602 84.7293 292.602 83.0126C292.602 81.2959 293.015 79.756 293.842 78.3927C294.686 77.0126 295.827 75.9439 297.264 75.1865C298.701 74.4123 300.291 74.0252 302.033 74.0252C303.794 74.0252 305.392 74.4123 306.829 75.1865C308.266 75.9439 309.398 77.0042 310.225 78.3675C311.051 79.7307 311.464 81.2791 311.464 83.0126C311.464 84.7461 311.051 86.2945 310.225 87.6578C309.398 89.021 308.266 90.0898 306.829 90.864C305.392 91.6213 303.794 92 302.033 92ZM302.033 90.0056C303.344 90.0056 304.521 89.7195 305.563 89.1473C306.623 88.575 307.449 87.7588 308.042 86.6985C308.653 85.6382 308.958 84.4095 308.958 83.0126C308.958 81.5989 308.653 80.3703 308.042 79.3268C307.449 78.2665 306.632 77.4502 305.59 76.878C304.548 76.3058 303.362 76.0196 302.033 76.0196C300.704 76.0196 299.518 76.3058 298.476 76.878C297.434 77.4502 296.608 78.2665 295.997 79.3268C295.404 80.3703 295.108 81.5989 295.108 83.0126C295.108 84.4095 295.404 85.6382 295.997 86.6985C296.608 87.7588 297.434 88.575 298.476 89.1473C299.536 89.7195 300.722 90.0056 302.033 90.0056Z" fill="#0F161F"/>
<path d="M327.258 79.3773C327.258 80.8415 326.719 82.0617 325.641 83.0379C324.581 83.9972 322.955 84.4769 320.764 84.4769H317.153V91.8233H314.701V74.2272H320.764C322.884 74.2272 324.491 74.7069 325.587 75.6662C326.701 76.6255 327.258 77.8626 327.258 79.3773ZM320.764 82.5835C322.129 82.5835 323.135 82.3058 323.782 81.7504C324.428 81.195 324.752 80.4039 324.752 79.3773C324.752 77.2062 323.422 76.1206 320.764 76.1206H317.153V82.5835H320.764Z" fill="#0F161F"/>
<path d="M332.757 76.0954V81.9776H339.602V83.871H332.757V89.9299H340.41V91.8233H330.305V74.202H340.41V76.0954H332.757Z" fill="#0F161F"/>
<path d="M349.967 74.2272C352.015 74.2272 353.785 74.5891 355.276 75.3128C356.785 76.0196 357.934 77.0379 358.725 78.3675C359.533 79.6971 359.937 81.2623 359.937 83.0631C359.937 84.864 359.533 86.4292 358.725 87.7588C357.934 89.0715 356.785 90.0813 355.276 90.7882C353.785 91.4783 352.015 91.8233 349.967 91.8233H344.12V74.2272H349.967ZM349.967 89.9299C352.392 89.9299 354.243 89.3324 355.518 88.1374C356.794 86.9257 357.431 85.2342 357.431 83.0631C357.431 80.8752 356.785 79.1669 355.491 77.9383C354.216 76.7097 352.375 76.0954 349.967 76.0954H346.572V89.9299H349.967Z" fill="#0F161F"/>
<path d="M365.624 74.2272V91.8233H363.172V74.2272H365.624Z" fill="#0F161F"/>
<path d="M380.904 87.9102H372.713L371.204 91.8233H368.617L375.407 74.3282H378.237L385 91.8233H382.413L380.904 87.9102ZM380.204 86.0421L376.809 77.1557L373.413 86.0421H380.204Z" fill="#0F161F"/>
</svg>
