<svg width="256" height="256" viewBox="0 0 256 256" fill="none" xmlns="http://www.w3.org/2000/svg">
<path fill-rule="evenodd" clip-rule="evenodd" d="M252.957 116.698C254.741 118.343 255.8 120.629 255.899 123.054C256 124.699 256 126.345 256 128C256 153.316 248.493 178.063 234.428 199.113C220.363 220.162 200.373 236.568 176.983 246.257C153.594 255.945 127.858 258.479 103.029 253.541C78.199 248.602 55.3916 236.411 37.4905 218.51C19.5893 200.609 7.39842 177.801 2.45945 152.972C-2.47927 128.142 0.0553993 102.405 9.74339 79.0165C19.4314 55.6276 35.8376 35.6367 56.8869 21.5719C77.9365 7.50708 102.684 0 128 0C129.646 0 131.282 0 132.91 0.0731201C135.335 0.117981 137.642 1.12427 139.325 2.87061C141.008 4.61694 141.928 6.96033 141.884 9.38513C141.839 11.81 140.832 14.1177 139.086 15.8006C137.34 17.4835 134.996 18.4037 132.572 18.3588H132.224C131.546 18.3234 130.864 18.3051 130.181 18.2957C129.842 18.2911 129.503 18.2886 129.165 18.2872C128.887 18.2861 128.609 18.2858 128.331 18.2858L128 18.2857C106.301 18.2857 85.0884 24.7203 67.0461 36.7759C49.0036 48.8315 34.9411 65.9665 26.6372 86.0142C18.3332 106.062 16.1606 128.122 20.3938 149.404C24.6272 170.687 35.0764 190.236 50.4204 205.58C65.7641 220.923 85.3135 231.373 106.596 235.606C127.878 239.839 149.938 237.667 169.986 229.363C190.033 221.059 207.168 206.996 219.224 188.954C231.28 170.911 237.714 149.699 237.714 128C237.714 126.592 237.681 125.193 237.614 123.803C237.514 121.379 238.382 119.014 240.027 117.229C240.841 116.345 241.821 115.63 242.911 115.125C244.002 114.62 245.181 114.335 246.382 114.286C248.807 114.186 251.172 115.054 252.957 116.698ZM202.652 43.7212C200.24 44.0101 197.813 43.3292 195.903 41.8282C193.642 40.0484 191.316 38.3569 188.927 36.7539C186.906 35.4069 185.503 33.3122 185.026 30.9306C184.55 28.549 185.038 26.0756 186.385 24.0545C187.732 22.0334 189.827 20.6301 192.209 20.1535C194.59 19.6768 197.064 20.1658 199.085 21.5128C201.876 23.384 204.589 25.3558 207.222 27.4282C209.132 28.9292 210.367 31.1273 210.655 33.5389C210.944 35.9504 210.263 38.3781 208.762 40.2876C207.261 42.1972 205.063 43.4323 202.652 43.7212ZM233.617 98.1848C232.837 95.4114 231.953 92.6899 230.966 90.0201H231.012C230.173 87.7445 230.272 85.2286 231.288 83.0262C232.304 80.8239 234.153 79.1152 236.429 78.2761C238.705 77.4371 241.22 77.5366 243.423 78.5525C245.625 79.5684 247.334 81.4176 248.173 83.6934C249.325 86.8842 250.358 90.0293 251.272 93.2842C251.594 94.444 251.684 95.656 251.536 96.8506C251.388 98.0452 251.006 99.1987 250.412 100.245C249.817 101.292 249.021 102.211 248.071 102.949C247.12 103.688 246.033 104.231 244.872 104.548C244.071 104.768 243.244 104.881 242.413 104.886C240.416 104.883 238.475 104.226 236.887 103.016C235.299 101.806 234.15 100.109 233.617 98.1848ZM225.085 70.9374C222.705 70.4701 220.607 69.0763 219.254 67.0625C217.651 64.6671 215.956 62.3387 214.17 60.0773C212.668 58.1738 211.984 55.7516 212.268 53.3434C212.551 50.9352 213.78 48.7384 215.684 47.2362C217.587 45.734 220.01 45.0495 222.418 45.3333C224.826 45.6171 227.023 46.8458 228.525 48.7493C230.597 51.3764 232.569 54.0796 234.44 56.8591C235.793 58.8729 236.291 61.3417 235.824 63.7225C235.356 66.1032 233.963 68.2008 231.949 69.554C229.935 70.907 227.466 71.4047 225.085 70.9374ZM165.969 25.0236C163.263 24.0362 160.52 23.1494 157.741 22.363H157.768C155.434 21.7047 153.457 20.1462 152.273 18.0303C151.088 15.9145 150.792 13.4147 151.45 11.0807C152.109 8.74689 153.667 6.77008 155.783 5.58527C157.899 4.40045 160.399 4.10474 162.733 4.76306C165.976 5.67737 169.163 6.71051 172.296 7.86249C173.423 8.27789 174.457 8.91119 175.339 9.72626C176.221 10.5413 176.934 11.522 177.437 12.6125C177.94 13.7031 178.223 14.882 178.271 16.082C178.318 17.282 178.129 18.4797 177.713 19.6065C177.298 20.7333 176.665 21.7673 175.85 22.6494C175.035 23.5314 174.054 24.2443 172.963 24.7473C171.873 25.2504 170.694 25.5336 169.494 25.5811C168.294 25.6285 167.096 25.439 165.969 25.0236ZM128 36.5714C109.917 36.5714 92.2405 41.9336 77.2051 51.9799C62.1697 62.0262 50.4512 76.3054 43.531 93.0118C36.6111 109.718 34.8005 128.101 38.3281 145.837C41.8559 163.572 50.5637 179.863 63.3503 192.65C76.1367 205.436 92.4277 214.144 110.163 217.672C127.899 221.2 146.282 219.389 162.988 212.469C179.695 205.549 193.974 193.83 204.02 178.795C214.066 163.76 219.428 146.083 219.428 128C219.428 103.752 209.796 80.4965 192.65 63.3502C175.504 46.204 152.248 36.5714 128 36.5714ZM76.0964 145.582C76.1826 145.524 76.0251 145.659 75.624 145.988C75.3157 146.241 74.863 146.609 74.2666 147.091C73.948 147.348 73.5884 147.638 73.1877 147.961V160.048H120.292V146.819H94.957C102.026 141.299 107.843 135.652 112.41 129.878C116.977 124.041 119.26 117.727 119.26 110.938C119.26 104.72 117.352 99.676 113.536 95.8057C109.783 91.9352 104.184 90 96.74 90C92.4236 90 88.4824 90.8566 84.9167 92.5697C81.4138 94.2828 78.5674 96.9478 76.3779 100.564C74.2512 104.181 73.125 108.686 73 114.079H88.4824C88.4824 110.78 89.1394 108.242 90.4531 106.465C91.8293 104.625 93.7058 103.705 96.083 103.705C98.4602 103.705 100.243 104.435 101.432 105.894C102.62 107.353 103.214 109.384 103.214 111.985C103.214 115.411 101.995 118.933 99.5549 122.55C97.1152 126.166 94.1125 129.624 90.5469 132.924C87.0437 136.223 82.227 140.442 76.0964 145.582ZM127.732 135.493V148.627H159.26V161H175.306V148.627H183V134.542H175.306V92.4745H157.384L127.732 135.493ZM144.622 134.542L160.386 110.367V134.542H144.622Z" fill="#0CA4DA"/>
</svg>
