<svg width="256" height="256" viewBox="0 0 256 256" fill="none" xmlns="http://www.w3.org/2000/svg">
<path d="M195.669 60.3307C195.584 60.16 195.584 59.904 195.499 59.648C178.859 23.4667 142.251 0 102.4 0C45.9093 0 0 45.9093 0 102.4C0 142.336 23.4667 178.859 59.7333 195.499C59.904 195.584 60.16 195.584 60.3307 195.669C76.4587 231.168 112.128 256 153.6 256C210.091 256 256 210.091 256 153.6C256 112.128 231.168 76.3733 195.669 60.3307ZM51.2 153.6C51.2 159.744 51.8827 165.803 52.9067 171.691C30.8053 155.819 17.0667 130.133 17.0667 102.4C17.0667 55.3813 55.3813 17.0667 102.4 17.0667C130.133 17.0667 155.819 30.8053 171.691 52.9067C165.803 51.8827 159.744 51.2 153.6 51.2C97.1093 51.2 51.2 97.1093 51.2 153.6ZM153.6 145.067C167.68 145.067 179.2 156.587 179.2 170.667C179.2 181.76 172.032 191.147 162.133 194.731V196.267C162.133 200.96 158.293 204.8 153.6 204.8C148.907 204.8 145.067 200.96 145.067 196.267V194.731C135.168 191.147 128 181.76 128 170.667C128 165.973 131.84 162.133 136.533 162.133C141.227 162.133 145.067 165.973 145.067 170.667C145.067 175.36 148.907 179.2 153.6 179.2C158.293 179.2 162.133 175.36 162.133 170.667C162.133 165.973 158.293 162.133 153.6 162.133C139.52 162.133 128 150.613 128 136.533C128 125.44 135.168 116.053 145.067 112.469V110.933C145.067 106.24 148.907 102.4 153.6 102.4C158.293 102.4 162.133 106.24 162.133 110.933V112.469C172.032 116.053 179.2 125.44 179.2 136.533C179.2 141.227 175.36 145.067 170.667 145.067C165.973 145.067 162.133 141.227 162.133 136.533C162.133 131.84 158.293 128 153.6 128C148.907 128 145.067 131.84 145.067 136.533C145.067 141.227 148.907 145.067 153.6 145.067Z" fill="#0CA4DA"/>
</svg>
