<svg width="256" height="256" viewBox="0 0 256 256" fill="none" xmlns="http://www.w3.org/2000/svg">
<path d="M128 0C61.8315 0 10 30.2746 10 68.9231V187.077C10 225.725 61.8315 256 128 256C194.168 256 246 225.725 246 187.077V68.9231C246 30.2746 194.168 0 128 0ZM226.333 128C226.333 139.837 216.654 151.912 199.777 161.13C180.766 171.513 155.275 177.231 128 177.231C100.725 177.231 75.2341 171.513 56.2234 161.13C39.3464 151.912 29.6667 139.837 29.6667 128V107.516C50.6362 125.933 86.496 137.846 128 137.846C169.504 137.846 205.364 125.933 226.333 107.516V128ZM199.777 220.207C180.766 230.59 155.276 236.308 128 236.308C100.724 236.308 75.2341 230.59 56.2234 220.207C39.3464 210.989 29.6667 198.913 29.6667 187.077V166.593C50.6362 185.01 86.496 196.923 128 196.923C169.504 196.923 205.364 185.01 226.333 166.593V187.077C226.333 198.913 216.654 210.989 199.777 220.207Z" fill="#0CA4DA"/>
</svg>
